<mxfile host="65bd71144e">
    <diagram id="LhoV7oYXwGnPha3uARz9" name="Page-1">
        <mxGraphModel dx="635" dy="682" grid="1" gridSize="10" guides="1" tooltips="1" connect="1" arrows="1" fold="1" page="1" pageScale="1" pageWidth="827" pageHeight="1169" background="#000000" math="0" shadow="0">
            <root>
                <mxCell id="0"/>
                <mxCell id="1" parent="0"/>
                <mxCell id="3" value="Ingestion" style="endArrow=classic;html=1;entryX=-0.006;entryY=0.447;entryDx=0;entryDy=0;entryPerimeter=0;strokeColor=#808080;fontColor=#808080;labelBackgroundColor=none;" edge="1" parent="1" target="5">
                    <mxGeometry x="-0.0166" width="50" height="50" relative="1" as="geometry">
                        <mxPoint x="40" y="190" as="sourcePoint"/>
                        <mxPoint x="100" y="230" as="targetPoint"/>
                        <mxPoint as="offset"/>
                    </mxGeometry>
                </mxCell>
                <mxCell id="4" value="&lt;font style=&quot;font-size: 15px;&quot;&gt;&lt;b&gt;Databricks&lt;/b&gt;&lt;/font&gt;" style="rounded=0;whiteSpace=wrap;html=1;verticalAlign=top;labelBackgroundColor=none;backgroundOutline=0;strokeColor=#FF3333;fillColor=#000000;fontColor=#E6E6E6;" vertex="1" parent="1">
                    <mxGeometry x="420" y="160" width="170" height="160" as="geometry"/>
                </mxCell>
                <mxCell id="16" style="edgeStyle=none;html=1;exitX=0;exitY=0;exitDx=120;exitDy=35;exitPerimeter=0;entryX=0;entryY=0.5;entryDx=0;entryDy=0;strokeColor=#FF3333;fontColor=#FF3333;" edge="1" parent="1" source="5" target="6">
                    <mxGeometry relative="1" as="geometry"/>
                </mxCell>
                <mxCell id="5" value="&lt;font&gt;HDLF&lt;/font&gt;" style="shape=cube;whiteSpace=wrap;html=1;boundedLbl=1;backgroundOutline=1;darkOpacity=0.05;darkOpacity2=0.1;strokeColor=#f0ab00;labelBackgroundColor=none;fontColor=#E6E6E6;fillColor=#000000;" vertex="1" parent="1">
                    <mxGeometry x="120" y="170" width="120" height="50" as="geometry"/>
                </mxCell>
                <mxCell id="17" style="edgeStyle=none;html=1;exitX=0.5;exitY=1;exitDx=0;exitDy=0;entryX=0.5;entryY=0;entryDx=0;entryDy=0;fontColor=#E6E6E6;labelBackgroundColor=none;backgroundOutline=0;strokeColor=#FF3333;" edge="1" parent="1" source="6" target="7">
                    <mxGeometry relative="1" as="geometry"/>
                </mxCell>
                <mxCell id="6" value="Process" style="rounded=0;whiteSpace=wrap;html=1;labelBackgroundColor=none;backgroundOutline=0;strokeColor=#FF3333;fillColor=#000000;fontColor=#E6E6E6;" vertex="1" parent="1">
                    <mxGeometry x="430" y="190" width="150" height="30" as="geometry"/>
                </mxCell>
                <mxCell id="18" style="edgeStyle=none;html=1;exitX=0.5;exitY=1;exitDx=0;exitDy=0;entryX=0.5;entryY=0;entryDx=0;entryDy=0;fontColor=#E6E6E6;labelBackgroundColor=none;backgroundOutline=0;strokeColor=#FF3333;" edge="1" parent="1" source="7" target="8">
                    <mxGeometry relative="1" as="geometry"/>
                </mxCell>
                <mxCell id="7" value="New/Update Dataset" style="rounded=0;whiteSpace=wrap;html=1;labelBackgroundColor=none;backgroundOutline=0;strokeColor=#FF3333;fillColor=#000000;fontColor=#E6E6E6;" vertex="1" parent="1">
                    <mxGeometry x="430" y="235" width="150" height="30" as="geometry"/>
                </mxCell>
                <mxCell id="8" value="Unity Catalog/Delta Sharing" style="rounded=0;whiteSpace=wrap;html=1;labelBackgroundColor=none;backgroundOutline=0;strokeColor=#FF3333;fillColor=#000000;fontColor=#E6E6E6;" vertex="1" parent="1">
                    <mxGeometry x="430" y="280" width="150" height="30" as="geometry"/>
                </mxCell>
                <mxCell id="15" style="edgeStyle=none;html=1;exitX=0;exitY=0.5;exitDx=0;exitDy=0;entryX=0;entryY=0;entryDx=70;entryDy=50;entryPerimeter=0;strokeColor=#00ADD6;" edge="1" parent="1" source="9" target="5">
                    <mxGeometry relative="1" as="geometry"/>
                </mxCell>
                <mxCell id="9" value="&lt;font&gt;Delta Sharing Client&lt;/font&gt;" style="rounded=0;whiteSpace=wrap;html=1;strokeColor=#00ADD6;labelBackgroundColor=none;fontColor=#E6E6E6;fillColor=#000000;" vertex="1" parent="1">
                    <mxGeometry x="280" y="275" width="80" height="40" as="geometry"/>
                </mxCell>
                <mxCell id="10" value="&lt;font&gt;HANA&lt;/font&gt;" style="shape=cylinder3;whiteSpace=wrap;html=1;boundedLbl=1;backgroundOutline=1;size=15;strokeColor=#f0ab00;labelBackgroundColor=none;fontColor=#E6E6E6;fillColor=#000000;" vertex="1" parent="1">
                    <mxGeometry x="150" y="255" width="60" height="80" as="geometry"/>
                </mxCell>
                <mxCell id="11" value="" style="endArrow=classic;html=1;exitX=0;exitY=0.5;exitDx=0;exitDy=0;entryX=1;entryY=0.5;entryDx=0;entryDy=0;strokeColor=#00ADD6;" edge="1" parent="1" source="8" target="9">
                    <mxGeometry width="50" height="50" relative="1" as="geometry">
                        <mxPoint x="290" y="370" as="sourcePoint"/>
                        <mxPoint x="340" y="320" as="targetPoint"/>
                    </mxGeometry>
                </mxCell>
                <mxCell id="12" value="" style="endArrow=classic;html=1;entryX=1;entryY=0.5;entryDx=0;entryDy=0;entryPerimeter=0;exitX=0;exitY=0.5;exitDx=0;exitDy=0;strokeColor=#00ADD6;" edge="1" parent="1" source="9" target="10">
                    <mxGeometry width="50" height="50" relative="1" as="geometry">
                        <mxPoint x="290" y="370" as="sourcePoint"/>
                        <mxPoint x="340" y="320" as="targetPoint"/>
                    </mxGeometry>
                </mxCell>
                <mxCell id="20" value="Initial &amp;amp; Delta Upload" style="text;strokeColor=none;fillColor=none;align=left;verticalAlign=middle;spacingLeft=4;spacingRight=4;overflow=hidden;points=[[0,0.5],[1,0.5]];portConstraint=eastwest;rotatable=0;whiteSpace=wrap;html=1;fontSize=15;fontColor=#00ADD6;" vertex="1" parent="1">
                    <mxGeometry x="250" y="315" width="160" height="30" as="geometry"/>
                </mxCell>
            </root>
        </mxGraphModel>
    </diagram>
</mxfile>